<svg width="427" height="122" viewBox="0 0 427 122" fill="none" xmlns="http://www.w3.org/2000/svg">
<g clipPath="url(#clip0_38_5523)">
<path d="M167.615 27.5123C179.837 27.5123 191.099 30.0627 198.115 40.597C205.66 51.9813 196.835 60.9139 187.591 60.9139C182.803 60.9139 177.917 58.462 175.27 52.5111C171.762 44.5396 168.575 39.4265 163.257 39.4265H162.519C155.934 40.0672 154.543 48.6794 156.574 61.6531C158.162 71.867 164.008 83.6703 175.701 83.6703C181.437 83.6703 187.493 80.6887 192.92 74.9472C194.09 73.6658 195.37 73.136 196.428 73.136C198.447 73.136 199.825 75.1566 199.087 78.2368C195.69 93.6624 182.298 100.993 168.267 100.895C150.42 100.784 132.031 88.6602 132.031 64.7333C132.031 39.4142 148.931 27.5 167.627 27.5L167.615 27.5123Z" fill="black"/>
<path d="M200.133 25.4917C200.133 22.5101 202.471 20.0706 207.887 20.0706H215.001C220.208 20.0706 226.793 23.6929 226.793 30.6048V52.4125C226.793 53.2626 227.002 53.6939 227.322 53.6939C227.531 53.6939 227.962 53.4844 228.38 52.9546C232.208 48.4822 237.304 45.6115 243.47 45.6115C254.843 45.6115 261.859 51.8827 261.859 63.2671V85.814C261.859 89.0051 266.105 89.5349 266.105 94.3277C266.105 97.8391 263.976 99.3299 261.859 99.6502C258.142 100.18 254.733 100.5 251.446 100.5C247.828 100.5 244.332 100.18 240.504 99.6502C237.316 99.2313 235.187 97.8391 235.187 94.3277C235.187 89.5472 240.603 89.0051 240.603 85.814V70.2899C240.603 63.7969 239.015 60.1869 235.507 60.1869C229.981 60.1869 226.793 73.3824 226.793 78.2737V85.8264C226.793 89.0174 231.039 89.5472 231.039 94.34C231.039 97.8514 228.91 99.3422 226.793 99.6626C223.076 100.192 219.666 100.513 216.38 100.513C212.761 100.513 209.266 100.192 205.438 99.6626C202.25 99.2437 200.121 97.9623 200.121 94.6603C200.121 90.0893 205.536 89.5595 205.536 86.5779V36.4571C205.536 31.7753 200.121 30.6048 200.121 25.504L200.133 25.4917Z" fill="black"/>
<path d="M295.387 86.5533C295.387 89.5349 300.803 90.0647 300.803 94.6357C300.803 97.9377 298.673 99.1081 295.486 99.6379C291.978 100.168 288.679 100.488 285.183 100.488C281.688 100.488 278.057 100.168 274.02 99.6379C270.832 99.219 268.703 97.9377 268.703 94.6357C268.703 90.0647 274.118 89.5349 274.118 86.5533V63.0453C274.118 58.3634 268.703 57.193 268.703 52.0922C268.703 49.1105 270.832 46.671 275.398 46.671H283.583C290.919 46.671 295.375 50.2933 295.375 57.2053V86.5656L295.387 86.5533ZM283.485 20.0706C291.03 20.0706 296.027 24.543 296.027 31.2455C296.027 37.948 291.03 42.4204 283.485 42.4204C275.94 42.4204 270.943 37.948 270.943 31.2455C270.943 24.543 275.94 20.0706 283.485 20.0706Z" fill="black"/>
<path d="M304.372 107.289V63.033C304.372 58.3511 298.957 57.1806 298.957 52.0798C298.957 49.0982 301.295 46.6587 306.711 46.6587H313.825C316.902 46.6587 319.672 47.8292 322.01 49.6403C322.33 49.9607 322.749 50.0716 323.069 50.0716C323.487 50.0716 323.918 49.9607 324.349 49.6403C327.967 46.8805 332.632 45.5991 338.589 45.5991C351.452 45.5991 363.452 53.891 363.452 73.2592C363.452 92.6274 352.51 100.919 339.648 100.919C334.971 100.919 330.724 99.8597 327.007 97.7282C326.687 97.5187 326.478 97.5187 326.269 97.5187C325.838 97.5187 325.629 97.8391 325.629 98.4798V107.412C325.629 110.394 331.044 110.924 331.044 115.495C331.044 118.797 328.915 119.967 325.727 120.497C322.219 121.027 318.921 121.347 315.425 121.347C311.93 121.347 308.299 121.027 304.262 120.497C301.074 120.066 298.944 118.797 298.944 115.495C298.944 110.924 304.36 110.283 304.36 107.301L304.372 107.289ZM325.629 69.526C325.949 75.2675 326.367 91.7526 333.912 91.7526H334.232C339.02 91.5432 341.137 86.3315 340.608 73.3454C340.079 60.7906 337.42 55.6898 332.952 55.6898H332.632C329.124 55.8993 326.367 58.6714 325.616 65.4725V69.5137L325.629 69.526Z" fill="black"/>
<path d="M367.92 107.289V63.033C367.92 58.3511 362.504 57.1806 362.504 52.0798C362.504 49.0982 364.843 46.6587 370.259 46.6587H377.373C380.45 46.6587 383.219 47.8292 385.558 49.6403C385.878 49.9607 386.296 50.0716 386.616 50.0716C387.035 50.0716 387.466 49.9607 387.897 49.6403C391.503 46.8805 396.18 45.5991 402.137 45.5991C414.999 45.5991 427 53.891 427 73.2592C427 92.6274 416.058 100.919 403.196 100.919C398.519 100.919 394.272 99.8597 390.555 97.7282C390.235 97.5187 390.026 97.5187 389.817 97.5187C389.386 97.5187 389.177 97.8391 389.177 98.4798V107.412C389.177 110.394 394.592 110.924 394.592 115.495C394.592 118.797 392.463 119.967 389.275 120.497C385.767 121.027 382.469 121.347 378.973 121.347C375.477 121.347 371.846 121.027 367.809 120.497C364.621 120.066 362.492 118.797 362.492 115.495C362.492 110.924 367.908 110.283 367.908 107.301L367.92 107.289ZM389.177 69.526C389.497 75.2675 389.915 91.7526 397.46 91.7526H397.78C402.568 91.5432 404.685 86.3315 404.156 73.3454C403.627 60.7906 400.968 55.6898 396.5 55.6898H396.18C392.672 55.8993 389.915 58.6714 389.164 65.4725V69.5137L389.177 69.526Z" fill="black"/>
<path d="M78.0347 5.74157C77.887 5.74157 77.7885 5.69229 77.69 5.69229C75.3391 5.69229 76.7669 11.0272 73.099 12.7398C72.1759 13.1833 71.2405 13.3804 70.3543 13.3804C67.1295 13.3804 64.434 10.7315 65.3694 7.40487C66.7356 2.46425 71.0928 1.23218 76.9146 1.23218C86.8843 1.23218 92.7062 8.18108 90.3676 17.7789C88.8537 23.9516 83.0811 26.6868 77.1608 26.6868C72.2744 26.539 65.074 30.3954 63.3139 25.2083C62.7724 23.5943 65.4556 21.1795 74.6745 19.972C78.4039 19.4792 80.841 17.2738 81.3702 13.6515C82.0595 9.43779 80.2009 6.11119 78.047 5.71693L78.0347 5.74157Z" fill="black"/>
<path d="M67.6218 29.1633C65.2217 29.1633 63.08 28.3994 62.1323 25.6149C61.8738 24.8634 61.9969 24.0379 62.4646 23.2986C63.7939 21.1795 67.9541 19.6147 74.5022 18.7523C77.7392 18.3334 79.684 16.5099 80.1394 13.479C80.7179 9.90599 79.2039 7.28167 77.8869 6.96133C77.8131 6.96133 77.7392 6.94901 77.69 6.93669C77.5423 7.1215 77.3331 7.94699 77.1977 8.50143C76.7546 10.2633 76.1515 12.6782 73.6283 13.8609C70.5758 15.3025 66.9202 14.5016 65.0986 12.0991C64.0032 10.6576 63.6832 8.87105 64.1878 7.0599C65.9233 0.788641 71.9051 -0.012207 76.9269 -0.012207C82.2687 -0.012207 86.6997 1.88519 89.3952 5.32268C91.9923 8.64928 92.7677 13.171 91.5738 18.0623C89.7891 25.3316 82.958 27.9189 77.1608 27.9189C75.7576 27.882 74.0714 28.2023 72.4467 28.5226C70.9081 28.8183 69.2096 29.151 67.6218 29.151V29.1633ZM77.69 4.46022C77.8746 4.46022 78.01 4.49718 78.0962 4.50951H78.2439C80.9763 5.02698 83.4011 8.73552 82.5764 13.8733C81.9733 17.9761 79.1424 20.6497 74.8099 21.2164C66.3787 22.313 64.7786 24.2473 64.5447 24.617C64.4709 24.7278 64.4586 24.8018 64.4586 24.8264C65.2463 27.1304 67.4495 26.9702 71.942 26.0954C73.7021 25.7505 75.5114 25.4055 77.1608 25.4548C81.9733 25.4548 87.6844 23.3602 89.1244 17.4956C90.1337 13.3558 89.5306 9.58565 87.4013 6.87509C85.1858 4.04132 81.444 2.4889 76.8777 2.4889C70.5635 2.4889 67.5603 4.01668 66.5264 7.74986C66.1571 9.09282 66.5879 10.0538 67.0187 10.6206C68.1511 12.1114 70.4896 12.5919 72.5205 11.6309C73.9729 10.9533 74.3545 9.41316 74.736 7.91003C75.1053 6.45618 75.5976 4.46022 77.6531 4.46022H77.69Z" fill="black"/>
<path d="M74.1945 37.9357H40.6175C18.9548 37.9357 1.24316 55.6775 1.24316 77.3497C1.24316 84.7791 3.36019 91.7157 6.96653 97.6666L4.9972 111.946C4.19716 117.762 9.89591 122.32 15.3854 120.238L29.1584 115.027C32.7894 116.148 36.6419 116.751 40.6298 116.751H74.2068C95.8695 116.751 113.581 99.0096 113.581 77.3374C113.581 55.6652 95.8572 37.9233 74.2068 37.9233L74.1945 37.9357Z" fill="black"/>
<path d="M12.6282 122C10.6343 122 8.68957 121.322 7.06488 120.029C4.56629 118.033 3.33546 114.953 3.77856 111.786L5.68635 97.9376C1.96923 91.654 0.0122133 84.5572 0.0122133 77.3496C-9.50471e-05 54.9382 18.2162 36.6912 40.6173 36.6912H74.1944C96.5955 36.6912 114.812 54.9259 114.812 77.3496C114.812 99.7734 96.5955 118.008 74.1944 118.008H40.6173C36.7525 118.008 32.9123 117.454 29.1952 116.357L15.8161 121.421C14.7699 121.815 13.6867 122.012 12.6282 122.012V122ZM40.6173 39.18C19.5824 39.18 2.47388 56.3058 2.47388 77.3619C2.47388 84.2492 4.39397 91.0503 8.02492 97.0382L8.25878 97.4201L6.22791 112.143C5.9079 114.435 6.8064 116.665 8.60342 118.107C10.4127 119.548 12.7759 119.93 14.9422 119.105L29.1091 113.745L29.5152 113.868C33.1216 114.977 36.8633 115.544 40.6173 115.544H74.1944C95.2293 115.544 112.338 98.4181 112.338 77.3619C112.338 56.3058 95.2293 39.18 74.1944 39.18H40.6173Z" fill="black"/>
<path d="M82.9333 24.8634H49.3562C27.6936 24.8634 9.98193 42.6053 9.98193 64.2774C9.98193 71.7069 12.099 78.6434 15.7053 84.5944L13.736 98.8741C12.9359 104.689 18.6347 109.248 24.1242 107.166L37.8972 101.954C41.5281 103.075 45.3806 103.679 49.3685 103.679H82.9456C104.608 103.679 122.32 85.9373 122.32 64.2651C122.32 42.5929 104.596 24.8511 82.9456 24.8511L82.9333 24.8634Z" fill="#F9DB00"/>
<path d="M21.367 108.928C19.3731 108.928 17.4283 108.25 15.8036 106.956C13.3051 104.96 12.0742 101.88 12.5173 98.7138L14.4251 84.8653C10.708 78.5817 8.75098 71.4727 8.75098 64.2773C8.75098 41.8536 26.9673 23.6189 49.3684 23.6189H82.9455C105.347 23.6189 123.563 41.8536 123.563 64.2773C123.563 86.7011 105.347 104.936 82.9455 104.936H49.3684C45.5036 104.936 41.6634 104.381 37.9463 103.285L24.5672 108.349C23.5209 108.743 22.4378 108.94 21.3793 108.94L21.367 108.928ZM49.3561 26.1077C28.3212 26.1077 11.2126 43.2335 11.2126 64.2897C11.2126 71.177 13.1327 77.978 16.7637 83.9659L16.9975 84.3478L14.9667 99.0711C14.6467 101.363 15.5452 103.593 17.3422 105.034C19.1515 106.476 21.5147 106.846 23.681 106.032L37.8478 100.673L38.254 100.796C41.8603 101.905 45.6021 102.472 49.3561 102.472H82.9332C103.968 102.472 121.077 85.3458 121.077 64.2897C121.077 43.2335 103.968 26.1077 82.9332 26.1077H49.3561Z" fill="black"/>
<path d="M65.7387 36.4324C59.4861 36.4324 54.415 41.5085 54.415 47.7675V60.9753C54.415 67.2342 59.4861 72.3104 65.7387 72.3104V36.4324Z" fill="black"/>
<path d="M65.7388 36.4324V72.3104C71.9914 72.3104 77.0624 67.2342 77.0624 60.9753V47.7675C77.0624 41.5085 71.9914 36.4324 65.7388 36.4324Z" fill="white"/>
<path d="M65.7385 58.9179C68.2469 58.9179 70.2803 56.8824 70.2803 54.3716C70.2803 51.8607 68.2469 49.8252 65.7385 49.8252C63.2302 49.8252 61.1968 51.8607 61.1968 54.3716C61.1968 56.8824 63.2302 58.9179 65.7385 58.9179Z" fill="white"/>
<path d="M97.162 36.4324C90.9094 36.4324 85.8384 41.5085 85.8384 47.7675V60.9753C85.8384 67.2342 90.9094 72.3104 97.162 72.3104V36.4324Z" fill="black"/>
<path d="M97.1621 36.4324V72.3104C103.415 72.3104 108.486 67.2342 108.486 60.9753V47.7675C108.486 41.5085 103.415 36.4324 97.1621 36.4324Z" fill="white"/>
<path d="M97.1619 58.9179C99.6702 58.9179 101.704 56.8824 101.704 54.3716C101.704 51.8607 99.6702 49.8252 97.1619 49.8252C94.6535 49.8252 92.6201 51.8607 92.6201 54.3716C92.6201 56.8824 94.6535 58.9179 97.1619 58.9179Z" fill="white"/>
<path d="M80.2009 89.8921C70.9696 89.8921 64.2616 83.3745 63.9785 83.1034L68.3233 78.6679C68.3233 78.6679 73.5667 83.6825 80.2009 83.6825C80.287 83.6825 80.3609 83.6825 80.447 83.6825C84.4842 83.6086 88.349 81.6619 91.9553 77.9041L96.4355 82.204C91.6353 87.2185 86.2689 89.8059 80.4963 89.8921C80.3978 89.8921 80.2993 89.8921 80.2132 89.8921H80.2009Z" fill="black"/>
<path d="M45.9222 77.6701C47.3497 77.6701 48.5069 76.5117 48.5069 75.0827C48.5069 73.6538 47.3497 72.4954 45.9222 72.4954C44.4946 72.4954 43.3374 73.6538 43.3374 75.0827C43.3374 76.5117 44.4946 77.6701 45.9222 77.6701Z" fill="white"/>
<path d="M45.9222 86.2082C47.3497 86.2082 48.5069 85.0498 48.5069 83.6208C48.5069 82.1919 47.3497 81.0334 45.9222 81.0334C44.4946 81.0334 43.3374 82.1919 43.3374 83.6208C43.3374 85.0498 44.4946 86.2082 45.9222 86.2082Z" fill="white"/>
<path d="M53.4055 81.8344C54.8331 81.8344 55.9903 80.676 55.9903 79.247C55.9903 77.8181 54.8331 76.6597 53.4055 76.6597C51.978 76.6597 50.8208 77.8181 50.8208 79.247C50.8208 80.676 51.978 81.8344 53.4055 81.8344Z" fill="white"/>
</g>
<defs>
<clipPath id="clip0_38_5523">
<rect width="427" height="122" fill="white"/>
</clipPath>
</defs>
</svg>
