<?xml version="1.0" encoding="UTF-8"?><svg id="Layer_1" xmlns="http://www.w3.org/2000/svg" viewBox="0 0 750.31 120.52"><defs><style>.cls-1{fill:#00d7bc;}.cls-2{fill:#00bfe1;}.cls-3{fill:#0075cc;}.cls-4{fill:#0815dc;}.cls-5{fill:#8940dd;}</style></defs><path d="m0,60.26C0,24.9,24.73,0,58.93,0c26.56,0,48.31,15.44,55.94,39.84h-10.62c-6.64-18.43-23.9-29.71-45.15-29.71-28.39,0-48.8,20.42-48.8,50.13s20.42,50.13,48.8,50.13c21.75,0,39.67-11.79,46.15-31.04h10.62c-7.14,25.07-29.55,41.17-56.94,41.17C24.73,120.52,0,95.62,0,60.26Z"/><path d="m215.47,63.91h-68.06v54.45h-10.13V2.16h10.13v52.12h68.06V2.16h10.13v116.2h-10.13v-54.45Z"/><path d="m255.8,2.16h10.13v116.2h-10.13V2.16Z"/><path d="m296.14,2.16h42.99c23.41,0,38.68,14.11,38.68,36.19,0,19.26-11.45,32.37-29.71,35.52l31.54,44.49h-12.12l-31.21-43.66h-30.05v43.66h-10.13V2.16Zm42,62.91c18.43,0,29.38-10.13,29.38-26.73s-10.96-26.56-29.38-26.56h-31.87v53.29h31.87Z"/><path d="m392.75,60.26c0-35.52,24.57-60.26,59.93-60.26s59.93,24.73,59.93,60.26-24.4,60.26-59.93,60.26-59.93-24.73-59.93-60.26Zm59.93,50.13c29.55,0,49.8-20.42,49.8-50.13s-20.25-50.13-49.8-50.13-49.63,20.25-49.63,50.13,20.25,50.13,49.63,50.13Z"/><path d="m612.87,63.91h-68.06v54.45h-10.13V2.16h10.13v52.12h68.06V2.16h10.13v116.2h-10.13v-54.45Z"/><path d="m653.2,2.16h36.69c37.02,0,60.42,23.07,60.42,58.1s-23.41,58.1-60.42,58.1h-36.69V2.16Zm36.69,106.57c30.88,0,50.13-18.92,50.13-48.47s-19.42-48.47-50.46-48.47h-26.23v96.94h26.56Z"/><path class="cls-3" d="m439.23,72.62c-2.97-3.24-4.79-7.56-4.79-12.31,0-.95.07-1.87.21-2.78-6.82,1-17.87.49-25.14-10.76-1.34,4.27-2.06,8.82-2.06,13.54,0,11.98,4.67,22.86,12.27,30.95,12.97-2.37,17.76-11.56,19.5-18.65Z"/><path class="cls-1" d="m457.55,42.75c5.79,1.6,10.42,5.99,12.36,11.63,5.61-4.52,15.09-9.05,27.09-3.01-3.54-17.65-17.36-31.59-34.96-35.29-8.88,10.09-7.56,19.85-4.49,26.68Z"/><path class="cls-2" d="m436.08,52.75c2.77-6.07,8.76-10.35,15.79-10.65-3.05-6.76-4.41-16.55,4.41-26.85-1.2-.09-2.4-.16-3.62-.16-18.33,0-34.1,10.92-41.2,26.59,6.87,11.1,17.6,11.95,24.62,11.06Z"/><path class="cls-4" d="m461.37,76.33c-2.59,1.41-5.55,2.21-8.7,2.21-3.71,0-7.16-1.11-10.03-3.01-1.49,6.94-5.94,16.6-18.95,19.48,7.85,6.56,17.95,10.52,28.99,10.52,6.45,0,12.57-1.36,18.12-3.79,3.13-12.77-3.82-21.03-9.42-25.41Z"/><path class="cls-5" d="m497.88,60.31c0-1.22-.06-2.43-.16-3.62-11.62-6.32-21.04-2.32-26.9,2.13.04.49.07.99.07,1.49,0,5.02-2.03,9.57-5.32,12.87,5.6,4.13,13.33,12.52,10.16,26.02,13.26-7.88,22.15-22.34,22.15-38.89Z"/></svg>