<svg width="156" height="27" viewBox="0 0 156 27" fill="none" xmlns="http://www.w3.org/2000/svg">
<path d="M27.1191 19.0198V8.38568H28.6975V9.54954C29.5106 8.62483 30.5469 8.16248 31.8224 8.16248C32.5717 8.16248 33.2413 8.33786 33.8153 8.68861C34.3892 9.03936 34.8516 9.50171 35.1705 10.1075C35.6169 9.45388 36.1271 8.97558 36.7488 8.65672C37.3547 8.33786 38.0562 8.17842 38.8374 8.17842C39.6186 8.17842 40.2882 8.3538 40.8781 8.70455C41.4521 9.0553 41.9144 9.53359 42.2492 10.1554C42.584 10.7772 42.7435 11.4946 42.7435 12.3077V19.0357H41.197V12.6106C41.197 11.67 40.9419 10.9207 40.4477 10.3626C39.9534 9.82058 39.2838 9.54954 38.4229 9.54954C37.8489 9.54954 37.3068 9.69303 36.8286 9.98C36.3503 10.267 35.9357 10.6975 35.6009 11.2873C35.6328 11.4468 35.6488 11.6062 35.6806 11.7656C35.6966 11.9251 35.7125 12.1005 35.7125 12.2918V19.0198H34.166V12.6106C34.166 11.67 33.9109 10.9207 33.4167 10.3626C32.9225 9.82058 32.2529 9.54954 31.4238 9.54954C30.8499 9.54954 30.3397 9.67708 29.8773 9.94812C29.415 10.2192 29.0323 10.6018 28.6975 11.112V19.0357H27.1191V19.0198Z" fill="#3869E2"/>
<path d="M45.5178 23.5644C45.3265 23.5644 45.1351 23.5484 44.9598 23.5325C44.7844 23.5165 44.6409 23.4846 44.5293 23.4528V22.0338C44.7685 22.0976 45.0714 22.1135 45.4221 22.1135C46.3628 22.1135 47.0643 21.5555 47.5426 20.4554L48.1803 18.9887L43.8438 8.37048H45.5816L49.0253 17.0914L52.7401 8.37048H54.446L49.1369 20.6627C48.834 21.3482 48.5151 21.8903 48.1803 22.3208C47.8455 22.7513 47.4629 23.0542 47.0164 23.2614C46.57 23.4687 46.0758 23.5644 45.5178 23.5644Z" fill="#3869E2"/>
<path d="M55.8164 19.0204V4.16138H59.7863L63.8358 12.1808L67.9173 4.16138H71.8393V19.0204H68.9536V8.0834L63.788 17.9522L58.6543 8.05152V19.0204H55.8164Z" fill="#3869E2"/>
<path d="M79.6669 19.2272C78.5668 19.2272 77.5624 18.9721 76.6696 18.4459C75.7767 17.9357 75.0593 17.2502 74.5332 16.3893C74.007 15.5283 73.752 14.5717 73.752 13.4876C73.752 12.4194 74.007 11.4628 74.5013 10.5859C75.0115 9.70906 75.6811 9.0235 76.558 8.51332C77.4189 8.00314 78.3755 7.74805 79.4277 7.74805C80.4959 7.74805 81.4366 8.00314 82.2656 8.52927C83.0947 9.03945 83.7483 9.75689 84.2266 10.6338C84.7049 11.5266 84.9441 12.5469 84.9441 13.6949V14.4601H76.7493C76.8768 14.9065 77.0841 15.2892 77.387 15.6559C77.6899 16.0066 78.0407 16.2777 78.4711 16.469C78.9016 16.6603 79.348 16.756 79.8582 16.756C80.3365 16.756 80.7989 16.6762 81.2134 16.5327C81.6438 16.3893 81.9946 16.1661 82.2975 15.8791L84.2107 17.6169C83.5251 18.1749 82.8396 18.5735 82.1221 18.8286C81.3728 19.0996 80.5597 19.2272 79.6669 19.2272ZM76.6855 12.4035H82.0743C81.9627 11.973 81.7714 11.5744 81.5163 11.2396C81.2612 10.9048 80.9423 10.6497 80.5756 10.4584C80.209 10.2671 79.8104 10.1874 79.3799 10.1874C78.9335 10.1874 78.519 10.283 78.1523 10.4584C77.7856 10.6338 77.4827 10.8889 77.2276 11.2237C76.9725 11.5585 76.7971 11.9411 76.6855 12.4035Z" fill="#3869E2"/>
<path d="M91.9593 19.2276C90.8911 19.2276 89.9026 18.9725 89.0417 18.4782C88.1648 17.9681 87.4792 17.2825 86.9531 16.4216C86.4429 15.5447 86.1719 14.5722 86.1719 13.488C86.1719 12.4198 86.427 11.4473 86.9371 10.5864C87.4473 9.72542 88.1329 9.03987 89.0257 8.52969C89.9026 8.0195 90.8751 7.7644 91.9593 7.7644C92.8521 7.7644 93.6971 7.93978 94.4942 8.27459C95.2914 8.6094 95.9769 9.10364 96.5509 9.74137L94.7812 11.6386C94.3667 11.1922 93.9362 10.8574 93.4898 10.6342C93.0434 10.4269 92.5651 10.3153 92.039 10.3153C91.465 10.3153 90.9708 10.4588 90.5084 10.7298C90.062 11.0009 89.6953 11.3835 89.4402 11.8618C89.1851 12.3401 89.0576 12.8981 89.0576 13.5199C89.0576 14.1098 89.1851 14.6519 89.4562 15.1461C89.7272 15.6404 90.078 16.023 90.5403 16.31C90.9867 16.5969 91.5129 16.7404 92.0868 16.7404C92.581 16.7404 93.0434 16.6288 93.4739 16.4216C93.9043 16.2143 94.3189 15.8954 94.7174 15.465L96.4552 17.2984C95.8813 17.9202 95.1957 18.3985 94.4145 18.7493C93.6652 19.0681 92.8361 19.2276 91.9593 19.2276Z" fill="#3869E2"/>
<path d="M97.9062 19.0201V4.16104L100.808 3.52332V8.88023C101.653 8.1309 102.705 7.74826 103.933 7.74826C104.778 7.74826 105.543 7.93958 106.197 8.30628C106.85 8.68891 107.361 9.1991 107.743 9.85277C108.11 10.5064 108.301 11.2717 108.301 12.1326V19.0042H105.415V12.5631C105.415 11.8457 105.208 11.2717 104.794 10.8572C104.379 10.4427 103.821 10.2354 103.104 10.2354C102.609 10.2354 102.163 10.3311 101.78 10.5224C101.398 10.7137 101.079 10.9847 100.824 11.3355V19.0042H97.9062V19.0201Z" fill="#3869E2"/>
<path d="M115.54 19.1641C114.487 19.1641 113.547 18.909 112.702 18.3989C111.857 17.8887 111.171 17.2031 110.677 16.3581C110.167 15.5131 109.928 14.5566 109.928 13.4884C109.928 12.4202 110.183 11.4636 110.677 10.6026C111.187 9.74171 111.857 9.05615 112.734 8.54596C113.595 8.03578 114.567 7.79663 115.635 7.79663C116.177 7.79663 116.704 7.87635 117.214 8.01984C117.724 8.16333 118.202 8.38653 118.665 8.67351V7.95606H121.566V19.0206H118.696V18.1119C117.772 18.8134 116.72 19.1641 115.54 19.1641ZM116.002 16.6929C116.528 16.6929 117.007 16.5973 117.469 16.4219C117.915 16.2306 118.314 15.9755 118.633 15.6407V11.336C118.314 11.0172 117.915 10.7621 117.469 10.5867C117.022 10.4113 116.528 10.3157 116.002 10.3157C115.412 10.3157 114.87 10.4591 114.36 10.7302C113.866 11.0012 113.483 11.3839 113.196 11.8781C112.909 12.3723 112.766 12.9144 112.766 13.5043C112.766 14.1101 112.909 14.6522 113.196 15.1465C113.483 15.6247 113.882 16.0074 114.36 16.2944C114.87 16.5494 115.412 16.6929 116.002 16.6929Z" fill="#3869E2"/>
<path d="M123.734 19.0202V7.95562H126.636V8.86439C127.481 8.11505 128.533 7.73242 129.761 7.73242C130.606 7.73242 131.371 7.92374 132.025 8.29043C132.679 8.67307 133.189 9.18325 133.571 9.83692C133.938 10.4906 134.129 11.2559 134.129 12.1168V18.9883H131.244V12.5473C131.244 11.8298 131.036 11.2559 130.622 10.8413C130.207 10.4268 129.649 10.2196 128.932 10.2196C128.438 10.2196 127.991 10.3152 127.609 10.5065C127.226 10.6979 126.907 10.9689 126.652 11.3196V18.9883H123.734V19.0202Z" fill="#3869E2"/>
<path d="M137.685 6.64816C137.239 6.64816 136.84 6.48874 136.522 6.15393C136.203 5.83506 136.027 5.43648 136.027 4.95819C136.027 4.51178 136.187 4.1132 136.522 3.79434C136.84 3.47547 137.239 3.31604 137.685 3.31604C138.148 3.31604 138.546 3.47547 138.865 3.79434C139.184 4.1132 139.344 4.49584 139.344 4.95819C139.344 5.42054 139.184 5.81912 138.865 6.15393C138.546 6.48874 138.148 6.64816 137.685 6.64816ZM136.235 19.0201V7.95551H139.152V19.0201H136.235Z" fill="#3869E2"/>
<path d="M146.598 19.2276C145.53 19.2276 144.541 18.9725 143.68 18.4782C142.803 17.9681 142.118 17.2825 141.592 16.4216C141.082 15.5447 140.811 14.5722 140.811 13.488C140.811 12.4198 141.066 11.4473 141.576 10.5864C142.086 9.72542 142.772 9.03987 143.664 8.52969C144.541 8.0195 145.514 7.7644 146.598 7.7644C147.491 7.7644 148.336 7.93978 149.133 8.27459C149.93 8.6094 150.616 9.10364 151.19 9.74137L149.42 11.6386C149.005 11.1922 148.575 10.8574 148.128 10.6342C147.682 10.4269 147.204 10.3153 146.678 10.3153C146.104 10.3153 145.609 10.4588 145.147 10.7298C144.701 11.0009 144.334 11.3835 144.079 11.8618C143.824 12.3401 143.696 12.8981 143.696 13.5199C143.696 14.1098 143.824 14.6519 144.095 15.1461C144.366 15.6404 144.717 16.023 145.179 16.31C145.625 16.5969 146.152 16.7404 146.725 16.7404C147.22 16.7404 147.682 16.6288 148.113 16.4216C148.543 16.2143 148.958 15.8954 149.356 15.465L151.094 17.2984C150.52 17.9202 149.834 18.3985 149.053 18.7493C148.304 19.0681 147.475 19.2276 146.598 19.2276Z" fill="#3869E2"/>
<path d="M10.5703 0C4.73513 0 0 4.73513 0 10.5703C0 11.0805 -1.82456e-06 14.4127 2.67846 18.8449C2.75817 18.9884 2.98138 18.9884 3.06109 18.8449L3.36401 18.3187L5.65984 14.3489C5.78738 14.1257 5.78738 13.8706 5.64389 13.6474C5.08588 12.7546 4.76702 11.7023 4.76702 10.5863C4.76702 7.3817 7.36576 4.78296 10.5703 4.78296C10.7138 4.78296 10.8414 4.78296 10.9849 4.7989C11.0646 4.7989 11.1124 4.89456 11.0805 4.97427L8.57744 9.31083C8.54556 9.3746 8.52961 9.45431 8.5615 9.51809L9.64564 11.9415C9.67753 12.0371 9.77318 12.0849 9.86884 12.069L12.4995 11.798C12.5792 11.798 12.643 11.7501 12.6748 11.6864L15.1779 7.36575C15.2258 7.28604 15.3214 7.28604 15.3693 7.34981C16.1345 8.46584 16.549 9.86884 16.3099 11.3675C15.6881 15.4011 12.2125 16.4853 10.3471 16.4056C10.092 16.3896 9.86884 16.5331 9.7413 16.7404L7.44547 20.7102L6.20191 22.8466C6.10625 23.022 6.12219 23.2452 6.26568 23.3887C7.25416 24.3772 8.40207 25.3656 9.72536 26.3701C10.2037 26.7208 10.8733 26.7208 11.3516 26.3701C20.8059 19.3072 21.1088 11.3834 21.1088 10.5863C21.1407 4.73513 16.4056 0 10.5703 0Z" fill="#3869E2"/>
<path d="M153.581 7.9248C153.166 7.9248 152.783 7.82915 152.433 7.62188C152.082 7.41462 151.795 7.14359 151.604 6.79284C151.396 6.44208 151.301 6.0435 151.301 5.61303C151.301 5.18257 151.396 4.78399 151.604 4.43324C151.811 4.08249 152.082 3.81146 152.433 3.60419C152.783 3.39693 153.166 3.30127 153.581 3.30127C154.011 3.30127 154.394 3.39693 154.745 3.60419C155.095 3.81146 155.366 4.08249 155.574 4.44918C155.781 4.79993 155.876 5.19851 155.876 5.61303C155.876 6.0435 155.781 6.44208 155.574 6.79284C155.366 7.14359 155.095 7.43057 154.745 7.62188C154.394 7.82915 154.011 7.9248 153.581 7.9248ZM153.581 7.43056C153.931 7.43056 154.234 7.35084 154.489 7.20735C154.745 7.04792 154.952 6.84066 155.111 6.56963C155.271 6.29859 155.334 5.97973 155.334 5.62898C155.334 5.27823 155.255 4.95936 155.111 4.68833C154.952 4.4173 154.745 4.21003 154.489 4.0506C154.234 3.89117 153.931 3.8274 153.581 3.8274C153.246 3.8274 152.943 3.90711 152.672 4.0506C152.401 4.21003 152.194 4.4173 152.05 4.68833C151.907 4.95936 151.827 5.27823 151.827 5.62898C151.827 5.97973 151.907 6.28265 152.05 6.55369C152.21 6.82472 152.417 7.04792 152.672 7.20735C152.943 7.35084 153.246 7.43056 153.581 7.43056ZM152.783 6.64934V4.54485H153.74C153.963 4.54485 154.139 4.60861 154.266 4.73616C154.394 4.8637 154.473 5.02314 154.473 5.21445C154.473 5.342 154.442 5.4536 154.378 5.56521C154.314 5.67681 154.218 5.75653 154.091 5.80435L154.585 6.64934H154.011L153.613 5.90002H153.326V6.64934H152.783ZM153.628 4.95937H153.31V5.53332H153.628C153.836 5.53332 153.947 5.43766 153.947 5.24634C153.947 5.15068 153.915 5.08691 153.868 5.03908C153.804 4.97531 153.724 4.95937 153.628 4.95937Z" fill="#3869E2"/>
</svg>
